<?xml version="1.0" standalone="no"?>
<!DOCTYPE svg PUBLIC "-//W3C//DTD SVG 20010904//EN"
 "http://www.w3.org/TR/2001/REC-SVG-20010904/DTD/svg10.dtd">
<svg version="1.0" xmlns="http://www.w3.org/2000/svg"
 width="500.000000pt" height="500.000000pt" viewBox="0 0 500.000000 500.000000"
 preserveAspectRatio="xMidYMid meet">
<metadata>
Created by potrace 1.14, written by Peter Selinger 2001-2017
</metadata>
<g transform="translate(0.000000,500.000000) scale(0.100000,-0.100000)"
fill="#000000" stroke="none">
<path d="M36 4956 c-14 -25 -26 -47 -26 -50 0 -14 38 -4 44 10 14 37 15 4 1
-36 -8 -24 -13 -45 -11 -48 8 -8 76 65 76 82 0 9 5 16 11 16 6 0 9 -9 6 -20
-8 -30 8 -15 38 36 26 45 26 77 0 41 -10 -13 -14 -15 -18 -5 -3 9 -9 8 -22 -7
-16 -20 -16 -20 -12 3 5 19 1 22 -28 22 -29 0 -37 -6 -59 -44z"/>
<path d="M219 4993 c-1 -5 -1 -15 0 -24 1 -9 -5 -22 -14 -29 -8 -7 -15 -24
-15 -39 0 -14 -7 -39 -15 -55 -8 -15 -15 -41 -15 -57 0 -17 -6 -32 -15 -35 -8
-4 -12 -10 -9 -15 3 -5 0 -9 -5 -9 -6 0 -10 -6 -8 -12 1 -8 -8 -13 -23 -13
-20 0 -31 -11 -55 -57 -19 -39 -32 -54 -37 -45 -5 6 -7 -109 -6 -258 3 -229 5
-273 19 -293 14 -20 18 -21 29 -7 14 17 34 10 23 -8 -12 -20 -2 -81 17 -101
20 -21 50 -16 50 9 0 8 13 33 28 54 15 21 34 58 41 82 7 24 17 52 22 62 6 12
5 17 -4 17 -23 0 -11 47 24 96 55 77 149 224 149 233 0 14 71 90 90 96 11 4
20 13 20 22 0 9 19 36 41 61 30 32 38 46 29 52 -10 6 -5 19 18 51 29 41 56
122 45 133 -3 3 4 17 14 33 44 64 45 63 -92 63 l-124 0 -7 -37 c-4 -21 -11
-44 -17 -51 -5 -7 -7 -15 -4 -18 5 -5 -30 -44 -48 -54 -6 -3 -10 2 -11 10 -1
8 -2 17 -4 20 -3 6 -7 52 -9 98 -1 17 -6 32 -12 32 -6 0 -32 -21 -57 -47 -38
-38 -48 -43 -50 -28 -2 9 0 20 6 24 5 3 12 16 16 29 6 16 3 22 -8 22 -9 0 -17
-3 -17 -7z"/>
<path d="M90 4820 c0 -5 5 -10 10 -10 6 0 10 5 10 10 0 6 -4 10 -10 10 -5 0
-10 -4 -10 -10z"/>
<path d="M1769 4423 c-37 -28 -114 -63 -138 -63 -14 0 -21 6 -21 20 0 19 -4
20 -57 13 -31 -3 -68 -12 -82 -20 -15 -7 -31 -13 -38 -13 -6 0 -18 -6 -25 -13
-7 -7 -37 -26 -67 -41 -40 -20 -62 -25 -84 -20 -16 3 -39 1 -51 -4 -11 -6 -34
-13 -49 -17 -20 -4 -33 -16 -43 -40 -8 -19 -19 -35 -24 -35 -19 0 -11 -61 11
-79 22 -18 22 -18 2 -37 -11 -10 -28 -31 -38 -46 -9 -16 -22 -28 -27 -28 -11
0 -61 -44 -115 -100 -44 -46 -50 -73 -24 -106 12 -15 21 -32 21 -39 0 -15 22
-25 54 -25 12 0 48 -7 80 -15 32 -8 103 -16 159 -16 97 -1 102 -2 127 -29 14
-15 30 -36 36 -46 6 -11 45 -32 87 -49 42 -16 77 -33 77 -37 0 -15 -51 -22
-157 -19 -102 3 -112 1 -122 -17 -19 -35 51 -87 159 -118 25 -7 90 -27 145
-44 89 -27 240 -61 333 -74 18 -2 61 0 95 5 34 5 108 14 165 19 56 5 108 12
113 16 6 4 28 7 48 8 20 1 51 10 70 19 19 9 47 17 62 17 60 0 224 181 305 338
37 71 48 92 64 120 5 9 23 44 39 77 25 49 28 62 17 75 -7 8 -21 34 -31 58 -10
23 -22 42 -27 42 -14 0 -46 33 -58 60 -20 46 -37 71 -67 98 -16 15 -38 41 -47
57 -13 22 -33 36 -69 49 -29 10 -63 27 -76 37 -13 11 -41 24 -63 29 -55 15
-236 10 -253 -7 -11 -11 -16 -10 -30 3 -16 17 -99 22 -143 8 -16 -5 -22 -3
-20 7 5 22 -40 22 -79 -1 -40 -24 -63 -20 -63 10 0 11 -6 20 -14 20 -8 0 -21
2 -28 5 -8 3 -25 -2 -39 -12z"/>
<path d="M1209 4359 l-24 -20 25 7 c14 3 32 12 40 20 25 24 -14 18 -41 -7z"/>
<path d="M1143 4323 c-10 -3 -10 -9 0 -24 12 -20 32 -25 41 -10 8 12 -26 39
-41 34z"/>
<path d="M4930 4114 c-9 -10 -10 -18 -2 -26 12 -12 32 -2 32 17 0 21 -16 26
-30 9z"/>
<path d="M4970 4094 c0 -8 5 -12 10 -9 6 4 8 11 5 16 -9 14 -15 11 -15 -7z"/>
<path d="M3670 4080 c-14 -11 -30 -20 -35 -20 -6 0 -27 -9 -48 -20 -20 -11
-52 -20 -69 -20 -18 0 -55 -12 -83 -26 -27 -13 -58 -23 -67 -21 -9 3 -19 -1
-22 -9 -3 -8 -16 -14 -29 -14 -26 0 -77 -21 -77 -32 0 -5 -8 -8 -17 -8 -28 0
-58 -72 -45 -107 5 -15 11 -39 12 -53 3 -47 -1 -395 -5 -494 -3 -60 0 -114 7
-137 11 -38 13 -39 55 -39 30 0 45 -5 49 -15 4 -8 11 -15 18 -15 6 0 20 -13
31 -30 11 -16 30 -35 43 -42 13 -6 31 -25 40 -40 9 -15 20 -28 25 -28 5 0 27
-13 50 -28 23 -16 56 -36 72 -44 17 -8 44 -22 60 -31 17 -8 50 -23 75 -33 25
-9 73 -30 106 -46 34 -15 67 -28 74 -28 6 0 35 -11 64 -24 53 -24 188 -68 203
-65 4 1 13 1 18 -1 6 -1 43 -1 84 0 53 1 88 8 127 25 34 15 56 20 60 14 3 -6
17 -8 29 -5 14 4 25 1 29 -7 3 -9 8 -7 16 5 6 9 16 15 23 13 37 -15 84 -11
121 8 23 12 49 20 60 19 88 -15 156 148 155 373 0 184 3 219 17 247 11 22 15
53 12 116 -2 48 -6 92 -10 97 -4 6 -24 30 -46 55 -21 25 -53 65 -70 90 -17 25
-50 65 -73 90 -58 63 -67 79 -74 129 -6 49 -22 66 -80 82 -22 6 -45 15 -51 20
-6 5 -38 18 -70 29 -47 17 -81 20 -170 19 -93 -2 -117 1 -155 18 -77 36 -53
32 -324 48 -79 4 -93 2 -115 -15z"/>
<path d="M2 3540 c0 -19 2 -27 5 -17 2 9 2 25 0 35 -3 9 -5 1 -5 -18z"/>
<path d="M1990 2770 c-109 -17 -260 -52 -305 -70 -11 -5 -50 -11 -86 -14 -60
-6 -149 -29 -174 -45 -5 -4 -26 -8 -45 -10 -19 -2 -37 -6 -40 -10 -3 -3 -21
-14 -40 -25 -19 -10 -39 -24 -45 -30 -5 -7 -32 -18 -60 -26 -88 -24 -168 -60
-240 -108 -38 -26 -71 -50 -73 -54 -2 -5 -10 -8 -17 -8 -21 0 -27 -17 -12 -32
8 -8 17 -36 21 -63 13 -85 32 -102 101 -85 28 7 33 -1 25 -32 -22 -80 -21 -94
6 -109 24 -12 26 -17 20 -59 -4 -25 -9 -63 -12 -85 -6 -42 0 -61 44 -140 20
-37 33 -50 50 -50 12 0 27 -7 32 -15 7 -12 43 -15 192 -15 137 -1 196 -6 233
-17 93 -30 168 -58 179 -67 6 -5 61 -28 121 -50 61 -23 119 -46 130 -50 11 -5
59 -18 107 -30 135 -32 278 -93 415 -177 27 -17 78 -82 70 -90 -3 -4 -50 -8
-104 -10 -169 -6 -199 -12 -233 -46 -27 -27 -36 -30 -71 -25 -32 4 -42 2 -47
-11 -9 -26 -30 -43 -57 -48 -14 -2 -41 -14 -61 -25 -20 -11 -44 -18 -53 -16
-19 4 -91 -29 -91 -43 0 -5 6 -13 13 -17 8 -4 30 -34 50 -65 39 -62 67 -83
193 -145 45 -22 97 -52 115 -66 19 -13 45 -28 59 -32 14 -4 35 -13 47 -21 23
-14 119 -39 183 -48 19 -2 58 -8 85 -12 118 -20 300 8 415 63 70 33 76 34 100
20 18 -11 28 -29 34 -60 6 -29 15 -47 26 -50 21 -5 34 -65 21 -99 -5 -13 -26
-39 -48 -56 -53 -45 -56 -47 -76 -55 -9 -3 -22 -18 -27 -32 -5 -14 -16 -25
-25 -25 -8 0 -15 -5 -15 -11 0 -14 -69 -79 -84 -79 -6 0 -23 8 -36 17 -14 10
-33 16 -43 15 -9 -2 -24 4 -33 13 -29 29 -114 5 -114 -31 0 -8 -3 -14 -7 -15
-5 0 -19 -3 -33 -5 -14 -3 -38 -6 -53 -7 -15 -1 -31 -6 -35 -12 -4 -5 -22 -18
-40 -29 -29 -15 -40 -16 -79 -7 -37 10 -55 9 -100 -4 -33 -10 -63 -13 -76 -8
-12 4 -26 8 -32 9 -38 5 -75 18 -75 26 0 5 -6 8 -12 7 -7 -1 -30 -1 -51 0 -30
1 -40 6 -44 20 -3 12 -18 23 -37 27 -38 9 -276 11 -281 3 -5 -7 -36 -5 -50 3
-6 3 -27 4 -47 2 -21 -2 -38 1 -38 7 0 5 -11 7 -25 3 -16 -4 -36 1 -60 16 -27
17 -41 20 -62 13 -20 -7 -37 -4 -66 10 -34 16 -46 17 -83 8 -54 -14 -54 -14
-54 2 0 6 -19 21 -42 32 -23 11 -64 41 -90 67 -26 26 -53 50 -60 55 -8 4 -21
20 -31 35 -10 16 -24 28 -32 28 -8 0 -15 9 -15 20 0 11 -4 20 -10 20 -5 0 -7
13 -3 31 5 25 2 31 -16 36 -11 3 -21 12 -21 20 0 8 -7 21 -15 29 -8 9 -15 29
-15 45 0 16 -4 28 -9 27 -20 -6 -71 37 -71 60 0 12 -4 22 -8 22 -5 0 -12 12
-18 27 l-9 27 -37 -39 c-37 -39 -63 -42 -40 -5 17 27 15 37 -8 43 -22 6 -29
-18 -7 -26 7 -3 5 -6 -5 -6 -10 -1 -18 4 -18 10 0 11 -28 9 -62 -6 -13 -5 -18
-2 -18 9 0 22 -26 31 -44 17 -8 -7 -17 -27 -20 -45 -4 -18 -15 -41 -26 -51
-20 -18 -29 -62 -10 -50 6 3 10 -3 10 -14 0 -10 -5 -21 -11 -23 -5 -2 -7 -11
-4 -21 8 -18 50 -23 60 -7 4 6 11 8 16 4 5 -3 7 -9 4 -14 -3 -5 1 -15 9 -23
14 -14 11 -57 -4 -57 -4 0 -12 -11 -18 -25 -6 -14 -8 -25 -3 -25 4 0 25 -25
45 -56 28 -41 34 -59 26 -68 -13 -17 31 -49 54 -40 9 3 16 2 16 -4 0 -5 -7
-13 -16 -16 -10 -4 -13 -13 -9 -26 4 -11 2 -20 -4 -20 -6 0 -11 -5 -11 -11 0
-7 9 -9 23 -6 l22 6 -23 -19 c-24 -20 -22 -40 4 -40 8 0 14 -5 14 -11 0 -8 5
-8 15 1 15 13 19 8 16 -22 -1 -9 7 -22 18 -28 12 -6 21 -21 21 -35 0 -13 4
-26 9 -29 5 -3 9 -17 9 -32 -1 -14 6 -30 13 -35 8 -5 617 -9 1369 -9 l1356 0
43 86 c36 70 57 96 115 147 39 34 107 98 151 143 60 62 97 90 147 114 141 65
434 414 538 637 36 78 65 202 76 328 2 22 6 58 9 80 3 22 10 91 16 152 8 88
16 127 40 178 16 35 29 75 29 87 0 20 -4 18 -43 -20 -39 -38 -45 -41 -82 -35
-22 3 -47 12 -56 19 -9 8 -18 12 -20 9 -3 -3 -22 4 -42 14 -42 22 -74 18 -82
-10 -8 -24 -21 -24 -27 -1 -4 14 -15 17 -58 16 -30 0 -56 -6 -58 -12 -2 -8
-11 -8 -30 -1 -15 6 -38 13 -52 16 -13 2 -30 9 -37 14 -7 6 -18 7 -24 3 -7 -4
-9 -3 -5 4 7 12 -13 19 -67 21 -42 2 -71 18 -126 68 -19 17 -62 45 -95 63 -38
19 -72 46 -91 71 -16 22 -44 57 -61 77 -16 20 -54 74 -82 119 -51 81 -101 141
-171 210 -49 47 -121 58 -144 21 -14 -22 2 -53 58 -111 46 -48 65 -102 65
-185 0 -80 -53 -101 -111 -44 -25 25 -36 29 -50 21 -10 -5 -40 -13 -66 -18
-27 -5 -61 -15 -78 -22 -77 -31 -125 -33 -209 -9 -42 11 -80 19 -84 16 -4 -2
-39 -7 -77 -11 -40 -3 -87 -15 -109 -26 -50 -26 -76 -20 -138 32 -52 44 -177
94 -262 105 l-49 7 6 -62 c8 -71 17 -91 63 -144 19 -20 34 -45 34 -56 0 -10 7
-25 16 -32 13 -11 15 -26 10 -79 -3 -36 -6 -73 -7 -84 0 -10 30 -48 69 -85 67
-64 113 -125 132 -177 10 -24 9 -24 -33 -20 -23 2 -68 9 -99 15 -117 22 -175
32 -283 46 -60 8 -139 19 -175 24 -36 5 -99 12 -140 15 -119 10 -185 23 -232
47 -40 20 -141 95 -198 146 -13 13 -43 29 -66 37 -37 13 -45 12 -82 -4 -38
-17 -41 -17 -56 -1 -21 23 -20 28 11 74 21 30 31 37 49 33 21 -6 43 1 149 47
141 61 191 94 290 193 94 93 107 102 200 141 134 55 138 56 180 38 21 -8 43
-15 49 -15 7 0 16 34 23 85 7 48 23 111 39 146 36 80 25 89 -96 69z m1462
-691 c42 -19 62 -107 31 -138 -13 -12 -16 -12 -24 0 -5 8 -9 17 -9 21 0 4 -6
5 -14 2 -19 -7 -56 43 -56 75 0 46 27 61 72 40z m68 -194 c10 -12 10 -15 -4
-15 -9 0 -16 7 -16 15 0 8 2 15 4 15 2 0 9 -7 16 -15z m453 -735 c-3 -11 -9
-17 -14 -14 -14 8 -10 34 5 34 9 0 12 -7 9 -20z m-37 -25 c-3 -8 -9 -22 -12
-30 -3 -8 -2 -15 4 -15 16 0 24 -49 10 -65 -7 -8 -19 -21 -26 -30 -7 -8 -18
-12 -24 -9 -6 4 -8 3 -5 -2 3 -6 1 -16 -4 -24 -8 -13 -11 -13 -22 2 -12 15
-14 15 -25 -3 -8 -12 -23 -19 -42 -19 -17 0 -30 2 -30 5 0 12 24 55 32 55 4 0
8 13 8 30 0 30 30 57 50 45 12 -7 30 10 49 48 15 28 48 39 37 12z m-3126 -398
c0 -18 -27 -53 -35 -45 -4 3 1 18 10 32 19 29 25 32 25 13z"/>
<path d="M3830 1046 c0 -2 7 -7 16 -10 8 -3 12 -2 9 4 -6 10 -25 14 -25 6z"/>
<path d="M4991 2568 c0 -9 -4 -25 -7 -35 -5 -14 -4 -15 5 -7 7 7 11 22 8 35
-2 13 -5 16 -6 7z"/>
<path d="M450 932 c-38 -5 -45 -18 -26 -46 9 -14 16 -41 16 -61 0 -31 3 -35
25 -35 16 0 36 12 55 33 32 35 39 67 15 67 -8 0 -15 6 -15 13 0 16 -39 33 -70
29z"/>
<path d="M669 51 c-20 -16 -21 -21 -10 -35 15 -17 41 -22 41 -7 0 6 -5 13 -10
16 -14 9 -1 27 15 21 7 -2 16 2 19 10 8 21 -27 18 -55 -5z"/>
<path d="M760 34 c0 -8 5 -12 10 -9 6 3 10 10 10 16 0 5 -4 9 -10 9 -5 0 -10
-7 -10 -16z"/>
</g>
</svg>
